<svg width="512" height="512" viewBox="0 0 512 512" fill="none" xmlns="http://www.w3.org/2000/svg">
  <defs>
    <radialGradient id="bg" cx="50%" cy="42%" r="75%">
      <stop offset="0%" stop-color="#1b0b3a"/>
      <stop offset="55%" stop-color="#0a0420"/>
      <stop offset="100%" stop-color="#05020f"/>
    </radialGradient>
    <radialGradient id="core" cx="50%" cy="50%" r="50%">
      <stop offset="0%" stop-color="#ffffff"/>
      <stop offset="22%" stop-color="#e9c6ff"/>
      <stop offset="55%" stop-color="#a855f7"/>
      <stop offset="100%" stop-color="#a855f7" stop-opacity="0"/>
    </radialGradient>
    <radialGradient id="cloudA" cx="50%" cy="50%" r="50%">
      <stop offset="0%" stop-color="#d946ef" stop-opacity="0.9"/>
      <stop offset="100%" stop-color="#d946ef" stop-opacity="0"/>
    </radialGradient>
    <radialGradient id="cloudB" cx="50%" cy="50%" r="50%">
      <stop offset="0%" stop-color="#38bdf8" stop-opacity="0.8"/>
      <stop offset="100%" stop-color="#38bdf8" stop-opacity="0"/>
    </radialGradient>
  </defs>
  <rect width="512" height="512" rx="112" fill="url(#bg)"/>
  <g style="mix-blend-mode:screen">
    <circle cx="190" cy="210" r="150" fill="url(#cloudA)"/>
    <circle cx="330" cy="300" r="160" fill="url(#cloudB)"/>
    <circle cx="256" cy="256" r="150" fill="url(#core)"/>
  </g>
  <g fill="#ffffff">
    <circle cx="256" cy="256" r="9"/>
    <circle cx="150" cy="150" r="3.5" opacity="0.95"/>
    <circle cx="372" cy="168" r="2.6" opacity="0.85"/>
    <circle cx="398" cy="320" r="3.2" opacity="0.9"/>
    <circle cx="132" cy="356" r="2.4" opacity="0.8"/>
    <circle cx="300" cy="392" r="2.8" opacity="0.85"/>
    <circle cx="210" cy="360" r="2" opacity="0.7"/>
    <circle cx="360" cy="240" r="2.2" opacity="0.75"/>
    <circle cx="180" cy="280" r="2" opacity="0.7"/>
  </g>
  <g stroke="#ffffff" stroke-opacity="0.18" stroke-width="1.5">
    <path d="M256 256 L150 150" />
    <path d="M256 256 L398 320" />
    <path d="M256 256 L300 392" />
  </g>
</svg>
